<?xml version="1.0" encoding="UTF-8" standalone="no"?>
<svg
   xmlns:dc="http://purl.org/dc/elements/1.1/"
   xmlns:cc="http://creativecommons.org/ns#"
   xmlns:rdf="http://www.w3.org/1999/02/22-rdf-syntax-ns#"
   xmlns:svg="http://www.w3.org/2000/svg"
   xmlns="http://www.w3.org/2000/svg"
   xmlns:sodipodi="http://sodipodi.sourceforge.net/DTD/sodipodi-0.dtd"
   xmlns:inkscape="http://www.inkscape.org/namespaces/inkscape"
   inkscape:version="0.92.3 (2405546, 2018-03-11)"
   sodipodi:docname="uselessbox_Nested.svg"
   id="svg1302"
   version="1.1"
   viewBox="0 0 1038.4803 363.83466"
   height="128.35278mm"
   width="366.35278mm">
  <metadata
     id="metadata1308">
    <rdf:RDF>
      <cc:Work
         rdf:about="">
        <dc:format>image/svg+xml</dc:format>
        <dc:type
           rdf:resource="http://purl.org/dc/dcmitype/StillImage" />
        <dc:title />
      </cc:Work>
    </rdf:RDF>
  </metadata>
  <defs
     id="defs1306" />
  <sodipodi:namedview
     fit-margin-bottom="0"
     fit-margin-right="0"
     fit-margin-left="0"
     fit-margin-top="0"
     inkscape:current-layer="svg1302"
     inkscape:window-maximized="1"
     inkscape:window-y="15"
     inkscape:window-x="-8"
     inkscape:cy="193.23288"
     inkscape:cx="471.03443"
     inkscape:zoom="1.4605398"
     showgrid="false"
     id="namedview1304"
     inkscape:window-height="1004"
     inkscape:window-width="1680"
     inkscape:pageshadow="2"
     inkscape:pageopacity="0"
     guidetolerance="10"
     gridtolerance="10"
     objecttolerance="10"
     borderopacity="1"
     inkscape:document-rotation="0"
     bordercolor="#666666"
     pagecolor="#ffffff" />
  <g
     transform="translate(0.49999246,0.50000492)"
     id="g1201" />
  <g
     transform="translate(0.49999246,0.50000492)"
     id="g1203" />
  <g
     transform="translate(0.49999246,0.50000492)"
     id="g1205" />
  <g
     transform="translate(0.49999246,0.50000492)"
     id="g1207" />
  <g
     transform="translate(0.49999246,0.50000492)"
     id="g1209" />
  <g
     transform="translate(0.49999246,0.50000492)"
     id="g1211" />
  <g
     transform="translate(0.49999246,0.50000492)"
     id="g1213" />
  <g
     transform="translate(0.49999246,0.50000492)"
     id="g1215" />
  <g
     transform="translate(0.49999246,0.50000492)"
     id="g1217" />
  <g
     transform="translate(0.49999246,0.50000492)"
     id="g1219" />
  <g
     transform="translate(0.49999246,0.50000492)"
     id="g1221" />
  <g
     transform="translate(0.49999246,0.50000492)"
     id="g1223" />
  <path
     stroke="#000000"
     fill="none"
     id="path5226"
     style="fill:none;stroke:#000000"
     d="m 495.14568,160.23229 a 8.64567,8.64567 0 1 0 0,-17.29134 8.64567,8.64567 0 1 0 0,17.29134 z"
     inkscape:connector-curvature="0" />
  <line
     id="line1226"
     stroke="#000000"
     fill="none"
     y2="160.23228"
     y1="160.23228"
     x2="495.14569"
     x1="495.14569" />
  <line
     id="line1228"
     stroke="#000000"
     fill="none"
     y2="235.77559"
     x2="821.83856"
     y1="296.01184"
     x1="821.83856" />
  <line
     id="line1230"
     stroke="#000000"
     fill="none"
     y2="233.79134"
     x2="612.78345"
     y1="11.838585"
     x1="612.78345" />
  <path
     inkscape:connector-curvature="0"
     id="path1232"
     stroke="#000000"
     fill="none"
     d="m 235.77559,89.791341 h -11.33858 v 0 -77.952756 0 h -35.43307 v 0 -11.33858263 0 h -28.34648 v 0 11.33858263 0 h -28.34644 v 0 -11.33858263 0 h -28.34646 v 0 11.33858263 0 H 75.618109 v 0 -11.33858263 0 h -28.34646 v 0 11.33858263 0 H 11.838582 v 0 77.952756 0 H 0.5 v 0 56.692909 0 h 11.338582 v 0 70.86614 0 H 0.5 v 0 56.69291 0 h 11.338582 v 0 77.95276 0 h 35.433067 v 0 11.33858 0 h 28.34646 v 0 -11.33858 0 h 28.346451 v 0 11.33858 0 h 28.34646 v 0 -11.33858 0 h 28.34644 v 0 11.33858 0 h 28.34648 v 0 -11.33858 0 h 35.43307 v 0 -77.95276 0 h 11.33858 v 0 -262.204708" />
  <path
     inkscape:connector-curvature="0"
     id="path1234"
     stroke="#000000"
     fill="none"
     d="m 235.77559,146.48425 h -11.33858 v 0 70.86614 0 h 11.33858" />
  <path
     inkscape:connector-curvature="0"
     style="fill:none;stroke:#ff0000;stroke-opacity:1"
     id="path1236"
     d="m 82.475727,128.12814 v -28.310191 0 h 71.324133 v 0 28.310191 0 z" />
  <path
     inkscape:connector-curvature="0"
     id="path1238"
     stroke="#000000"
     fill="none"
     d="M 377.50788,146.05906 H 366.1693 v 0 -16.01575 0 h -48.89766 v 0 -129.54330064 0 h -21.2598 v 0 11.33858264 0 h -21.25988 v 0 -11.33858264 0 h -21.2598 v 0 11.33858264 0 h -17.71657" />
  <path
     inkscape:connector-curvature="0"
     id="path1240"
     stroke="#000000"
     fill="none"
     d="m 235.77559,217.77559 h 11.33857 v 0 55.84252 0 h -11.33857 v 0 78.37796 0 h 17.71657 v 0 11.33858 0 h 21.2598 v 0 -11.33858 0 h 21.25988 v 0 11.33858 0 h 21.2598 v 0 -11.33858 0 h 21.25986 v 0 11.33858 0 h 21.25985 v 0 -11.33858 0 h 17.71653 v 0 -78.37796 0 H 366.1693 v 0 -55.84252 0 h 11.33858 v 0 -127.984244" />
  <path
     inkscape:connector-curvature="0"
     id="path1242"
     stroke="#000000"
     fill="none"
     d="m 235.77559,146.05906 h 11.33857 v 0 -55.842514 0 h -11.33857" />
  <path
     inkscape:connector-curvature="0"
     id="path1244"
     stroke="#000000"
     fill="none"
     d="m 377.50788,146.48425 h 11.33857 v 0 33.44883 0 h 127.55906 v 0 53.85826" />
  <path
     inkscape:connector-curvature="0"
     id="path1246"
     stroke="#000000"
     fill="none"
     d="m 377.50788,89.791346 h 11.33857 v 0 -77.952756 0 h 35.43308 v 0 -11.33858266 0 H 452.626 v 0 11.33858266 0 h 28.34645 v 0 -11.33858266 0 h 28.34646 v 0 11.33858266 0 h 28.34645 v 0 -11.33858266 0 h 28.34646 v 0 11.33858266 0 h 35.43306 v 0 77.952756 0 h 11.33859" />
  <path
     inkscape:connector-curvature="0"
     id="path1248"
     stroke="#000000"
     fill="none"
     d="m 612.78347,146.48425 h -11.33859 v 0 70.86614 0 h 11.33859" />
  <path
     inkscape:connector-curvature="0"
     id="path1250"
     stroke="#000000"
     fill="none"
     d="m 546.16929,228.12205 v -5.66929 0 h 34.01576 v 0 5.66929 0 z" />
  <path
     inkscape:connector-curvature="0"
     id="path1252"
     stroke="#000000"
     fill="none"
     d="m 546.16929,171.42913 v -5.66928 0 h 34.01576 v 0 5.66928 0 z" />
  <path
     inkscape:connector-curvature="0"
     id="path1254"
     stroke="#000000"
     fill="none"
     d="m 754.51576,90.216539 h -11.33858 v 0 55.842511 0 h 11.33858" />
  <path
     inkscape:connector-curvature="0"
     id="path1256"
     stroke="#000000"
     fill="none"
     d="m 612.78347,217.77559 h 11.33857 v 0 55.84251 0 h -11.33857 v 0 78.37796 0 h 17.71657 v 0 11.33858 0 h 21.2598 v 0 -11.33858 0 h 21.25988 v 0 11.33858 0 h 21.2598 v 0 -183.40157 0 h 60.23624 v 0 -48.04724" />
  <path
     inkscape:connector-curvature="0"
     id="path1258"
     stroke="#000000"
     fill="none"
     d="m 612.78347,146.05905 h 11.33857 v 0 -55.842511 0 h -11.33857" />
  <path
     inkscape:connector-curvature="0"
     id="path1260"
     stroke="#000000"
     fill="none"
     d="m 612.78347,11.838585 h 17.71657 v 0 -11.3385823 0 h 21.2598 v 0 11.3385823 0 h 21.25988 v 0 -11.3385823 0 h 21.2598 v 0 11.3385823 0 h 21.25986 v 0 -11.3385823 0 h 21.25984 v 0 11.3385823 0 h 17.71654" />
  <path
     inkscape:connector-curvature="0"
     id="path1262"
     stroke="#000000"
     fill="none"
     d="m 896.24805,47.696855 h -11.33858 v 0 27.496064 0 h 11.33858" />
  <path
     inkscape:connector-curvature="0"
     id="path1264"
     stroke="#000000"
     fill="none"
     d="m 896.24805,104.38976 h -11.33858 v 0 27.49607 0 h 11.33858" />
  <path
     inkscape:connector-curvature="0"
     id="path1266"
     stroke="#000000"
     fill="none"
     d="m 896.24805,161.08267 h -11.33858 v 0 27.49607 0 h 11.33858" />
  <path
     inkscape:connector-curvature="0"
     id="path1268"
     stroke="#000000"
     fill="none"
     d="m 821.83857,235.77559 h 36.28349 v 0 -11.33859 0 h 19.55906 v 0 11.33859 0 h 18.56693 v 0 -235.2755823 0 h -18.56693 v 0 11.3385823 0 h -19.55906 v 0 -11.3385823 0 h -22.11025 v 0 11.3385823 0 h -20.83463 v 0 -11.3385823 0 h -22.11022 v 0 11.3385823 0 h -20.83463 v 0 -11.3385823 0 h -17.71657 v 0 103.8897523 0 h 11.33857 v 0 27.49607 0 h -11.33857" />
  <path
     inkscape:connector-curvature="0"
     id="path1270"
     stroke="#000000"
     fill="none"
     d="m 836.01181,235.77559 v -11.33859 0 h -20.83463 v 0 11.33859 0 h -22.11022 v 0 -11.33859 0 h -20.83463 v 0 11.33859" />
  <path
     inkscape:connector-curvature="0"
     id="path1272"
     stroke="#000000"
     fill="none"
     d="m 754.51576,235.77559 v -47.19685 0 h 11.33857 v 0 -27.49607 0 h -11.33857" />
  <path
     inkscape:connector-curvature="0"
     id="path1274"
     stroke="#000000"
     fill="none"
     d="m 754.51576,75.192919 h 11.33857 v 0 -27.496064 0 h -11.33857" />
  <path
     inkscape:connector-curvature="0"
     id="path1276"
     stroke="#000000"
     fill="none"
     d="m 977.7441,235.77559 v -47.19685 0 h -11.33858 v 0 -27.49607 0 h 11.33858 v 0 -29.19685 0 h -11.33858 v 0 -27.49606 0 h 11.33858 v 0 -29.196846 0 h -11.33858 v 0 -27.496058 0 h 11.33858 v 0 -47.19685408 0 h -17.71658 v 0 11.33858208 0 H 939.1929 v 0 -11.33858208 0 h -22.11023 v 0 11.33858208 0 h -20.83462" />
  <path
     inkscape:connector-curvature="0"
     id="path1278"
     stroke="#000000"
     fill="none"
     d="m 960.02752,235.77559 v -11.33859 0 H 939.1929 v 0 11.33859" />
  <path
     inkscape:connector-curvature="0"
     id="path1280"
     stroke="#000000"
     fill="none"
     d="m 917.08267,235.77559 v -11.33859 0 h -20.83462" />
  <path
     inkscape:connector-curvature="0"
     id="path1282"
     stroke="#000000"
     fill="none"
     d="m 977.7441,47.696847 h 11.33858 v 0 27.496065 0 H 977.7441" />
  <path
     inkscape:connector-curvature="0"
     id="path1284"
     stroke="#000000"
     fill="none"
     d="m 977.7441,0.5 h 18.56693 v 0 11.338582 0 h 19.55907 v 0 V 0.5 v 0 h 22.1102 v 0 235.27558 0 h -22.1102 v 0 -11.33858 0 h -19.55907 v 0 11.33858 0 h -82.77168" />
  <path
     inkscape:connector-curvature="0"
     id="path1286"
     stroke="#000000"
     fill="none"
     d="m 977.7441,188.57873 h 11.33858 v 0 -27.49606 0 H 977.7441" />
  <path
     inkscape:connector-curvature="0"
     id="path1288"
     stroke="#000000"
     fill="none"
     d="m 977.7441,131.88582 h 11.33858 v 0 -27.49607 0 H 977.7441" />
  <path
     inkscape:connector-curvature="0"
     id="path1290"
     stroke="#000000"
     fill="none"
     d="m 516.40551,233.79134 h 98.3622 v 0 38.26771 0 h -11.33858 v 0 77.95276 0 h -35.43307 v 0 11.33858 0 H 539.6496 v 0 -11.33858 0 h -28.34645 v 0 11.33858 0 h -28.34646 v 0 -11.33858 0 h -28.34644 v 0 11.33858 0 h -28.34648 v 0 -11.33858 0 H 390.8307 v 0 -77.95276 0 h -11.33858 v 0 -56.69291 0 h 11.33858 v 0 -35.43306" />
  <path
     inkscape:connector-curvature="0"
     id="path1292"
     stroke="#000000"
     fill="none"
     d="m 821.83857,247.11417 h -37.84252 v 0 -11.33858 0 H 705.6181 v 0 17.71653 0 h -11.33858" />
  <path
     inkscape:connector-curvature="0"
     id="path1294"
     stroke="#000000"
     fill="none"
     d="m 705.6181,296.01183 v -21.25987 0 h -11.33858" />
  <path
     inkscape:connector-curvature="0"
     id="path1296"
     stroke="#000000"
     fill="none"
     d="m 857.69683,235.77559 v 11.33858 0 h 55.84252 v 0 -11.33858" />
  <path
     inkscape:connector-curvature="0"
     id="path1298"
     stroke="#000000"
     fill="none"
     d="m 991.91731,235.77559 v 17.71653 0 h 11.33859 v 0 21.25984 0 h -11.33859 v 0 21.25987 0 H 694.27952" />
  <path
     inkscape:connector-curvature="0"
     id="path1300"
     stroke="#000000"
     fill="none"
     d="m 906.87794,296.01183 v 56.69288 0 H 694.27952" />
  <text
     xml:space="preserve"
     style="font-style:normal;font-variant:normal;font-weight:normal;font-stretch:normal;font-size:17.01300049px;line-height:1.25;font-family:'Silver Pen';-inkscape-font-specification:'Silver Pen';letter-spacing:0px;word-spacing:0px;fill:none;fill-opacity:1;stroke:#ff0000;stroke-width:0.42532399;stroke-opacity:1"
     x="-502.65118"
     y="-163.82465"
     id="text5321"
     transform="scale(-1)"><tspan
       sodipodi:role="line"
       id="tspan5319"
       x="-502.65118"
       y="-163.82465"
       style="font-style:normal;font-variant:normal;font-weight:normal;font-stretch:normal;font-family:'Agency FB';-inkscape-font-specification:'Agency FB';fill:none;stroke:#ff0000;stroke-width:0.42532399;stroke-opacity:1">ON</tspan></text>
  <text
     xml:space="preserve"
     style="font-style:normal;font-variant:normal;font-weight:normal;font-stretch:normal;font-size:17.01300049px;line-height:1.25;font-family:'Silver Pen';-inkscape-font-specification:'Silver Pen';letter-spacing:0px;word-spacing:0px;fill:none;fill-opacity:1;stroke:#ff0000;stroke-width:0.42532399;stroke-opacity:1"
     x="-504.95639"
     y="-125.73307"
     id="text5325"
     transform="scale(-1)"><tspan
       sodipodi:role="line"
       id="tspan5323"
       x="-504.95639"
       y="-125.73307"
       style="font-style:normal;font-variant:normal;font-weight:normal;font-stretch:normal;font-family:'Agency FB';-inkscape-font-specification:'Agency FB';fill:none;stroke:#ff0000;stroke-width:0.42532399;stroke-opacity:1">OFF</tspan></text>
</svg>
